<?xml version="1.0" encoding="UTF-8" standalone="no"?>
<svg
   version="1.1"
   preserveAspectRatio="none"
   x="0px"
   y="0px"
   width="800.01062"
   height="285.98615"
   viewBox="0 0 800.01062 285.98615"
   id="svg243"
   sodipodi:docname="doodad-games-wide.svg"
   inkscape:version="1.2.1 (9c6d41e410, 2022-07-14)"
   xmlns:inkscape="http://www.inkscape.org/namespaces/inkscape"
   xmlns:sodipodi="http://sodipodi.sourceforge.net/DTD/sodipodi-0.dtd"
   xmlns:xlink="http://www.w3.org/1999/xlink"
   xmlns="http://www.w3.org/2000/svg"
   xmlns:svg="http://www.w3.org/2000/svg">
  <sodipodi:namedview
     id="namedview245"
     pagecolor="#ffffff"
     bordercolor="#000000"
     borderopacity="0.25"
     inkscape:showpageshadow="2"
     inkscape:pageopacity="0.0"
     inkscape:pagecheckerboard="0"
     inkscape:deskcolor="#d1d1d1"
     showgrid="false"
     inkscape:zoom="1"
     inkscape:cx="488"
     inkscape:cy="225"
     inkscape:window-width="1920"
     inkscape:window-height="1001"
     inkscape:window-x="-7"
     inkscape:window-y="-7"
     inkscape:window-maximized="1"
     inkscape:current-layer="svg243" />
  <defs
     id="defs201">
    <linearGradient
       inkscape:collect="always"
       id="linearGradient733">
      <stop
         style="stop-color:#000000;stop-opacity:1;"
         offset="0"
         id="stop729" />
      <stop
         style="stop-color:#000000;stop-opacity:0;"
         offset="1"
         id="stop731" />
    </linearGradient>
    <linearGradient
       id="Gradient_1"
       gradientUnits="userSpaceOnUse"
       x1="243"
       y1="218.05"
       x2="243"
       y2="337.95001"
       spreadMethod="pad">
      <stop
         offset="0%"
         stop-color="#A85FFF"
         id="stop128" />
      <stop
         offset="100%"
         stop-color="#8233E0"
         id="stop130" />
    </linearGradient>
    <linearGradient
       id="Gradient_2"
       gradientUnits="userSpaceOnUse"
       x1="226.1125"
       y1="260.22501"
       x2="164.1875"
       y2="295.97501"
       spreadMethod="pad">
      <stop
         offset="0%"
         stop-color="#FFFFFF"
         id="stop133" />
      <stop
         offset="100%"
         stop-color="#C1CDE2"
         id="stop135" />
    </linearGradient>
    <linearGradient
       id="Gradient_3"
       gradientUnits="userSpaceOnUse"
       x1="148.25"
       y1="269.14999"
       x2="107.65"
       y2="269.14999"
       spreadMethod="pad">
      <stop
         offset="0%"
         stop-color="#FFFFFF"
         id="stop138" />
      <stop
         offset="100%"
         stop-color="#C1CDE2"
         id="stop140" />
    </linearGradient>
    <linearGradient
       id="Gradient_4"
       gradientUnits="userSpaceOnUse"
       x1="385.375"
       y1="281.88751"
       x2="371.625"
       y2="305.71249"
       spreadMethod="pad">
      <stop
         offset="0%"
         stop-color="#FFFFFF"
         id="stop143" />
      <stop
         offset="100%"
         stop-color="#C1CDE2"
         id="stop145" />
    </linearGradient>
    <linearGradient
       id="Gradient_5"
       gradientUnits="userSpaceOnUse"
       x1="332.91251"
       y1="289.89999"
       x2="312.38751"
       y2="295.39999"
       spreadMethod="pad">
      <stop
         offset="0%"
         stop-color="#FFFFFF"
         id="stop148" />
      <stop
         offset="100%"
         stop-color="#C1CDE2"
         id="stop150" />
    </linearGradient>
    <linearGradient
       id="Gradient_6"
       gradientUnits="userSpaceOnUse"
       x1="276.22501"
       y1="249.71249"
       x2="262.47501"
       y2="225.8875"
       spreadMethod="pad">
      <stop
         offset="0%"
         stop-color="#FFFFFF"
         id="stop153" />
      <stop
         offset="100%"
         stop-color="#C1CDE2"
         id="stop155" />
    </linearGradient>
    <linearGradient
       id="Gradient_7"
       gradientUnits="userSpaceOnUse"
       x1="91.525002"
       y1="279.88751"
       x2="77.775002"
       y2="303.71249"
       spreadMethod="pad">
      <stop
         offset="0%"
         stop-color="#FFFFFF"
         id="stop158" />
      <stop
         offset="100%"
         stop-color="#C1CDE2"
         id="stop160" />
    </linearGradient>
    <g
       id="Layer0_0_FILL">
      <path
         fill="url(#Gradient_1)"
         stroke="none"
         d="m 410.25,238.45 -0.05,-0.05 q -5.55,-5.55 -12.05,-8.2 -6.65,-2.75 -14.2,-2.75 h -29.3 L 344,241.8 l -1.5,-4.25 h -30.05 l -5.35,10.5 q -2.4,-4.1 -6,-7.7 v -0.05 h -0.05 q -5.5,-5.4 -12.05,-8.15 h -0.05 q -6.6,-2.7 -14.15,-2.7 h -31.3 v 3.25 q -0.35,-0.35 -0.7,-0.7 l -0.05,-0.05 q -5.8,-5.8 -12.75,-8.75 h -0.05 v -0.05 q -6.95,-2.9 -15.2,-2.9 -8.25,0 -15.25,2.9 h -0.05 v 0.05 q -7,2.95 -12.8,8.8 v -0.05 q -4.8,4.7 -7.55,10.35 -0.15,-0.15 -0.3,-0.3 -5.85,-5.85 -12.8,-8.8 h -0.05 v -0.05 q -6.95,-2.9 -15.2,-2.9 -8.25,0 -15.25,2.9 h -0.05 v 0.05 q -7,2.95 -12.8,8.8 l -0.1,0.05 -0.8,0.9 Q 120.5,241 119,239.2 q -0.1,-0.05 -0.1,-0.1 l -0.55,-0.65 h -0.05 q -0.1,-0.2 -0.25,-0.3 L 118,238.1 q -0.25,-0.25 -0.4,-0.45 -0.25,-0.25 -0.45,-0.45 -0.15,-0.15 -0.3,-0.3 -0.15,-0.15 -0.3,-0.3 -0.1,-0.1 -0.15,-0.15 -5.55,-5.55 -12.1,-8.25 -6.65,-2.75 -14.2,-2.75 H 58.8 v 73.15 l 17.55,9.1 h 26 q 7,0 13.15,-2.5 h 0.05 q 4.7,-2 8.8,-5.4 3.05,2.7 6.45,4.7 0.55,0.6 1.2,1.25 5.4,5.4 11.9,8 h -0.05 q 6.5,2.75 14.2,2.75 7.6,0 14.1,-2.75 h 0.05 q 6.4,-2.65 11.85,-8 4.15,-4.2 6.75,-9.1 5.4,5.3 11.9,7.95 h -0.05 q 6.45,2.7 14.15,2.7 7.65,0 14.1,-2.7 6.5,-2.7 11.9,-8 0.05,-0.1 0.1,-0.15 v 14.9 h 19.6 v 28.45 q 0,10 10,10 h 81 q 10,0 10,-10 v -27.35 l 4.05,-2.65 -0.05,-0.25 h 4.65 q 7,0 13.2,-2.55 5.45,-2.25 10.2,-6.6 l 1.7,-0.55 0.1,-0.1 q 0.05,0 0.2,-0.05 0.25,-0.1 0.6,-0.25 6.55,-2.75 12.05,-8.15 h 0.05 q 5.5,-5.55 8.2,-12.25 v 0.05 q 2.75,-6.55 2.75,-14.25 0,-0.05 0,-0.1 0,-1 -0.05,-1.9 -0.3,-6.6 -2.7,-12.3 v -0.05 q -2.7,-6.65 -8.2,-12.05 m 0.8,15.1 0.05,0.05 q 1.85,4.45 2.05,9.6 v 0.05 q 0.05,0.7 0.05,1.5 0,0.05 0,0.1 0,6 -2.15,11.15 v 0.05 q -2.1,5.2 -6.45,9.55 v 0.05 q -4.4,4.25 -9.55,6.4 l -0.15,0.1 h -0.05 q -0.3,0.1 -0.55,0.25 l -1.55,0.5 q -0.05,0 -0.05,0.05 h -0.05 q -0.3,0.05 -0.45,0.1 l -0.85,0.3 -0.65,0.65 q -3.9,3.7 -8.4,5.6 -4.75,1.95 -10.15,1.95 h -9.6 q -2.15,-4.75 -9.05,-4.75 h -55.45 l 2.55,-7.35 -1.9,-1.25 -8.4,7.75 q -0.45,0.45 -0.95,0.85 H 272.5 q -8.1,0 -9.6,6.55 h -12 V 272.4 l -2.8,-0.6 -4.85,10.35 q -2.15,4.8 -6.1,8.8 v -0.05 q -4.25,4.2 -9.3,6.3 h -0.05 q -5.05,2.1 -11,2.1 -6,0 -11.05,-2.1 -5.1,-2.1 -9.3,-6.3 v 0.05 q -2,-2.05 -3.5,-4.25 l -4.75,-6.9 -2.35,8.05 q -0.45,1.45 -1.05,2.8 l -0.05,0.05 q -2.15,5.15 -6.35,9.4 v -0.05 q -4.3,4.2 -9.3,6.3 h -0.05 v 0.05 q -5.05,2.1 -11,2.1 -6,0 -11.1,-2.1 v -0.05 q -5.05,-2.1 -9.3,-6.3 v 0.05 q -0.75,-0.75 -1.35,-1.4 l -0.4,-0.55 -0.65,-0.35 q -3.75,-2.1 -6.95,-5.3 -0.45,-0.45 -0.9,-0.95 l -2.8,-3.1 -2.95,3 q -0.25,0.2 -0.55,0.5 V 292 q -3.95,3.85 -8.6,5.8 l -0.05,0.05 q -4.75,1.85 -10.1,1.85 H 78.3 l -11.5,-5.95 v -60.3 h 23.3 q 5.95,0 11.15,2.15 5.1,2.1 9.5,6.5 0.05,0.05 0.15,0.15 0.15,0.15 0.3,0.3 0.15,0.15 0.3,0.3 0.05,0.05 0.15,0.15 0.3,0.95 1.5,1.75 1.95,2.45 3.3,5.2 l 0.45,0.85 0.8,0.6 q 0.65,0.5 1.35,1.05 l 3.25,2.55 2.45,-3.3 q 0.35,-0.45 0.7,-0.9 l 3,-3.35 q 4.6,-4.55 10.1,-6.9 h 0.05 q 5.55,-2.3 12.15,-2.3 6.55,0 12.1,2.3 h 0.05 q 5.55,2.4 10.25,7.1 0.15,0.15 0.3,0.3 0.5,0.55 1.05,1.15 v -0.05 q 1.4,1.55 2.55,3.2 l 4.8,6.95 2.35,-8.1 q 0.5,-1.65 1.15,-3.25 2.3,-5.65 6.95,-10.2 4.65,-4.7 10.25,-7.1 h 0.05 q 5.55,-2.3 12.15,-2.3 6.55,0 12.1,2.3 h 0.05 q 5.55,2.4 10.25,7.1 4.35,4.25 6.7,9.5 l 4.85,10.4 2.8,-0.65 v -19.45 h 23.3 q 5.95,0 11.15,2.1 h -0.05 q 5.15,2.15 9.55,6.45 4.35,4.35 6.45,9.55 v 0.05 q 0.8,1.85 1.3,3.8 l 2.7,11 1.25,0.1 5.25,-15.2 4.95,-9.75 h 19.45 l 10.3,29.7 4,-0.7 v -28.9 l 7.6,-10.2 h 25.25 q 5.95,0 11.15,2.15 5.1,2.1 9.5,6.5 4.35,4.25 6.45,9.45 m -212,17.4 0.95,1.2 q 0.5,0.6 1.1,1.25 l 0.2,0.2 q 2.8,2.65 6.05,4.05 h 0.05 l 0.05,0.05 q 3.3,1.3 7.3,1.3 3.85,0 7.15,-1.35 h 0.05 q 3.3,-1.35 6.15,-4.05 v -0.05 h 0.05 q 2.6,-2.65 4.05,-5.65 0.5,-0.8 0.55,-1.55 l 0.2,-0.45 v -0.05 l 0.05,-0.1 v -0.05 l 0.45,-1.8 -0.7,-1.3 q -1.3,-2.55 -3.45,-4.65 -2.65,-2.6 -5.8,-3.85 -3.1,-1.35 -6.7,-1.35 -3.8,0 -6.9,1.35 l -0.05,0.05 q -3.05,1.25 -5.65,3.8 V 258 q -2.6,2.55 -3.9,5.75 v 0.05 q -1.05,2.55 -1.2,5.65 l -0.05,1.5 m 69.05,-9.9 h -4 v 22.4 h 10.7 q 3.7,0 6.7,-1.3 2.85,-1.25 5,-3.5 l 1.2,-1.3 -0.15,-1.8 q -0.2,-2.3 -1.05,-4.5 -1.05,-2.95 -3.6,-5.4 -2.45,-2.4 -5.25,-3.4 l 0.1,0.05 q -2.65,-1.05 -5.45,-1.2 h -0.1 q -2.05,-0.05 -4.1,-0.05 m -117,2.25 q -3.05,1.3 -5.65,3.85 -2.6,2.55 -3.9,5.85 -1.25,3.05 -1.25,6.7 0,2.9 0.85,5.5 l 0.5,1.6 1.5,0.75 q 0.6,0.3 1.35,0.5 l 0.25,0.1 5.75,0.85 h 0.25 q 3.85,0 7.15,-1.35 h 0.05 q 3.3,-1.35 6.15,-4.05 v -0.05 h 0.05 q 2.8,-2.85 4.25,-6.15 v -0.1 q 1.4,-3.4 1.4,-7.3 0,-1 -0.05,-1.9 l -0.1,-1.9 -1.6,-1.1 q -1.55,-1.1 -3.25,-1.8 v -0.05 q -3.1,-1.3 -6.75,-1.3 -3.8,0 -6.9,1.3 v 0.05 h -0.05 m -48.4,-5.85 q -0.2,0 -0.35,0 H 92.2 v 23.3 l 5.95,-3.35 q 1.85,-1.05 3.65,-2.7 l 0.05,-0.05 q 2.65,-2.7 3.75,-5.75 v 0.1 q 1.15,-3 1.15,-6.1 v -0.05 q 0,-0.45 0,-0.9 v -0.4 l -0.05,-0.35 v 0.25 l -4,-4 m 283.95,11.85 0.05,0.1 q -1.05,-2.8 -3.25,-5.2 -1.9,-2.2 -4.5,-3.4 l -5.7,-2.8 v 23.55 h 9.7 l 0.4,-0.05 q 0.05,0 0.15,0 h 3.2 l 0.7,-3.05 q 0.4,-1.75 0.4,-3.45 v -0.05 q 0,-0.4 0,-0.8 v -0.45 q -0.3,-2.3 -1.15,-4.4 z"
         id="path163" />
    </g>
    <g
       id="Layer0_1_FILL">
      <path
         fill="#622e9f"
         stroke="none"
         d="m 417.15,263 q -0.25,-5.85 -2.4,-10.95 -2.4,-5.95 -7.35,-10.8 -4.95,-4.95 -10.8,-7.35 -5.9,-2.45 -12.65,-2.45 h -27.3 l -9.55,12.85 v 18.75 l -7.45,-21.5 H 314.9 l -6.15,12 -1.7,4.9 q -0.55,-2.25 -1.45,-4.4 -2.4,-5.95 -7.35,-10.9 -4.95,-4.85 -10.8,-7.3 -5.9,-2.4 -12.65,-2.4 h -27.3 v 12.05 q -2.65,-5.9 -7.55,-10.7 -5.25,-5.25 -11.55,-7.95 -6.25,-2.6 -13.65,-2.6 -7.45,0 -13.75,2.6 -6.3,2.7 -11.55,7.95 -5.2,5.15 -7.8,11.5 -0.75,1.8 -1.3,3.7 -1.9,-2.75 -4.4,-5.2 -5.25,-5.25 -11.55,-7.95 -6.25,-2.6 -13.65,-2.6 -7.45,0 -13.75,2.6 -6.3,2.7 -11.55,7.95 -2.15,2.15 -3.9,4.5 -0.75,-0.6 -1.5,-1.15 -2.35,-4.85 -6.5,-8.9 -4.95,-4.95 -10.8,-7.35 -5.9,-2.45 -12.65,-2.45 H 62.8 v 66.7 l 14.5,7.55 h 25.05 q 6.2,0 11.65,-2.2 5.35,-2.25 9.9,-6.7 0.3,-0.3 0.55,-0.55 0.5,0.55 1,1.05 3.65,3.65 7.85,6 0.7,0.8 1.5,1.6 4.85,4.8 10.6,7.15 5.8,2.45 12.65,2.45 6.8,0 12.55,-2.45 5.75,-2.35 10.6,-7.15 4.8,-4.8 7.25,-10.65 0.7,-1.6 1.2,-3.3 1.7,2.5 3.95,4.8 4.8,4.75 10.6,7.15 5.75,2.4 12.6,2.4 6.8,0 12.55,-2.4 5.8,-2.4 10.6,-7.15 4.5,-4.5 6.95,-9.95 v 23.55 h 25.05 q 6.2,0 11.6,-2.25 5.1,-2.1 9.5,-6.25 l -5.55,15.85 20.1,0.1 6.05,-6.55 0.55,-1.55 h 15.75 l 2.8,8 h 19.95 l 10.05,-6.55 -0.9,-2.6 h 10.3 q 6.2,0 11.65,-2.25 5.2,-2.15 9.65,-6.45 1.6,-0.45 3.15,-1.1 5.85,-2.45 10.8,-7.3 4.95,-4.95 7.35,-10.9 2.45,-5.85 2.45,-12.7 0,-0.05 0,-0.1 0,-0.9 -0.05,-1.75 m -36.65,3.9 q 1.65,1.8 2.45,3.9 0.65,1.6 0.85,3.35 0,0.4 0,0.8 V 275 q 0,1.25 -0.3,2.5 -2,0.05 -4.1,0.05 h -2.15 V 264.4 q 1.9,0.9 3.25,2.5 m -277.75,-4.95 q 0,0.45 0,0.9 v 0.05 q 0,2.35 -0.9,4.6 -0.85,2.3 -2.85,4.3 -1.35,1.3 -2.8,2.1 v -12.45 h 6.15 q 0.15,0 0.35,0 0,0.25 0.05,0.5 m 49.95,5 q 2.4,-1 5.35,-1 2.8,0 5.2,1 1.3,0.55 2.5,1.4 0.05,0.8 0.05,1.65 0,3.1 -1.1,5.8 -1.15,2.65 -3.4,4.9 -2.25,2.15 -4.9,3.25 -2.6,1.05 -5.65,1.05 -3.2,0 -5.8,-1.05 -0.65,-2 -0.65,-4.25 0,-2.85 0.95,-5.25 1,-2.5 3,-4.45 2.05,-2 4.45,-3.05 m 127.2,11.5 q -2.3,1 -5.1,1 h -6.7 v -14.4 q 2,0 4,0.05 2.15,0.1 4.15,0.9 2.05,0.75 3.85,2.5 1.85,1.8 2.65,3.95 0.65,1.7 0.8,3.45 -1.55,1.65 -3.65,2.55 M 228.7,265.8 q -1.15,2.65 -3.4,4.9 -2.25,2.15 -4.9,3.25 -2.6,1.05 -5.65,1.05 -3.2,0 -5.85,-1.05 -2.6,-1.1 -4.85,-3.25 -0.5,-0.55 -0.95,-1.1 0.1,-2.35 0.9,-4.35 1,-2.45 3,-4.45 2.05,-2 4.45,-3 2.4,-1.05 5.35,-1.05 2.8,0 5.2,1.05 2.45,1 4.5,3 1.7,1.65 2.7,3.6 -0.2,0.7 -0.5,1.4 z"
         id="path166" />
    </g>
    <g
       id="Layer0_2_FILL">
      <path
         fill="url(#Gradient_2)"
         stroke="none"
         d="m 247.85,273.7 q 2.65,-6.35 2.65,-13.7 0,-7.4 -2.65,-13.7 -2.65,-6.35 -7.9,-11.5 -5.25,-5.25 -11.55,-7.95 -6.25,-2.6 -13.65,-2.6 -7.45,0 -13.75,2.6 -6.3,2.7 -11.55,7.95 -5.2,5.15 -7.8,11.5 -2.65,6.3 -2.65,13.7 0,7.35 2.65,13.7 2.6,6.35 7.8,11.6 5.25,5.2 11.55,7.8 6.3,2.65 13.75,2.65 7.4,0 13.65,-2.65 6.3,-2.6 11.55,-7.8 5.25,-5.25 7.9,-11.6 m -33.1,-28.65 q 3.05,0 5.65,1.1 2.65,1.1 4.9,3.3 2.25,2.15 3.4,4.85 1.1,2.6 1.1,5.7 0,3.1 -1.1,5.8 -1.15,2.65 -3.4,4.9 -2.25,2.15 -4.9,3.25 -2.6,1.05 -5.65,1.05 -3.2,0 -5.85,-1.05 -2.6,-1.1 -4.85,-3.25 -4.3,-4.45 -4.3,-10.7 0,-3.1 1.05,-5.7 1.1,-2.7 3.25,-4.85 2.25,-2.2 4.85,-3.3 2.65,-1.1 5.85,-1.1 z"
         id="path169" />
    </g>
    <g
       id="Layer0_3_FILL">
      <path
         fill="url(#Gradient_3)"
         stroke="none"
         d="m 137,236.85 q -6.3,2.7 -11.55,7.95 -5.2,5.15 -7.8,11.5 -2.65,6.3 -2.65,13.7 0,7.35 2.65,13.7 2.6,6.35 7.8,11.6 5.25,5.2 11.55,7.8 6.3,2.65 13.75,2.65 7.4,0 13.65,-2.65 6.3,-2.6 11.55,-7.8 5.25,-5.25 7.9,-11.6 2.65,-6.35 2.65,-13.7 0,-7.4 -2.65,-13.7 -2.65,-6.35 -7.9,-11.5 -5.25,-5.25 -11.55,-7.95 -6.25,-2.6 -13.65,-2.6 -7.45,0 -13.75,2.6 m 19.4,19.3 q 2.65,1.1 4.9,3.3 2.25,2.15 3.4,4.85 1.1,2.6 1.1,5.7 0,3.1 -1.1,5.8 -1.15,2.65 -3.4,4.9 -2.25,2.15 -4.9,3.25 -2.6,1.05 -5.65,1.05 -3.2,0 -5.85,-1.05 -2.6,-1.1 -4.85,-3.25 -4.3,-4.45 -4.3,-10.7 0,-3.1 1.05,-5.7 1.1,-2.7 3.25,-4.85 2.25,-2.2 4.85,-3.3 2.65,-1.1 5.85,-1.1 3.05,0 5.65,1.1 z"
         id="path172" />
    </g>
    <g
       id="Layer0_4_FILL">
      <path
         fill="#ffffff"
         stroke="none"
         d="m 417.15,263 q -0.25,-5.85 -2.4,-10.95 -2.4,-5.95 -7.35,-10.8 -4.95,-4.95 -10.8,-7.35 -5.9,-2.45 -12.65,-2.45 h -27.3 v 66.7 h 20.6 v -20.6 -25.4 h 6.7 q 2.8,0 5.1,1 2.35,1 3.95,2.95 1.8,1.95 2.7,4.2 0.7,1.75 0.9,3.65 0,0.45 0,0.9 h 20.6 q 0,-0.05 0,-0.1 0,-0.9 -0.05,-1.75 z"
         id="path175" />
      <path
         fill="url(#Gradient_4)"
         stroke="none"
         d="m 414.75,277.55 q 2.45,-5.85 2.45,-12.7 h -20.6 v 0.05 q 0,2.35 -0.9,4.6 -0.85,2.3 -2.85,4.3 -2,1.9 -4.2,2.7 -2.2,0.85 -4.55,1 -2.3,0.05 -4.7,0.05 h -2.15 v 20.6 h 6.7 q 6.75,0 12.65,-2.4 5.85,-2.45 10.8,-7.3 4.95,-4.95 7.35,-10.9 z"
         id="path177" />
    </g>
    <g
       id="Layer0_5_FILL">
      <path
         fill="url(#Gradient_5)"
         stroke="none"
         d="M 337.95,299.45 332,282.4 h -9.45 l -5.85,17.05 z"
         id="path180" />
      <path
         fill="#ffffff"
         stroke="none"
         d="m 327.3,268.85 4.7,13.55 5.95,17.05 3.05,8.7 h 21.75 l -23.1,-66.6 H 314.9 l -23.15,66.6 21.9,0.1 3.05,-8.8 5.85,-17.05 z"
         id="path182" />
    </g>
    <g
       id="Layer0_6_FILL">
      <path
         fill="#ffffff"
         stroke="none"
         d="m 268.1,233.45 h -20.6 v 66.7 h 27.3 q 6.75,0 12.65,-2.45 5.85,-2.4 10.8,-7.35 4.95,-4.85 7.35,-10.8 2.15,-5.1 2.4,-10.95 0.05,-0.85 0.05,-1.75 0,-0.05 0,-0.1 h -20.6 q 0,0.45 0,0.9 -0.2,1.9 -0.9,3.65 -0.9,2.25 -2.7,4.2 -1.6,1.95 -3.95,2.95 -2.3,1 -5.1,1 h -6.7 v -25.4 z"
         id="path185" />
      <path
         fill="url(#Gradient_6)"
         stroke="none"
         d="m 298.25,243.15 q -4.95,-4.85 -10.8,-7.3 -5.9,-2.4 -12.65,-2.4 h -6.7 v 20.6 h 2.15 q 2.4,0 4.7,0.05 2.35,0.15 4.55,1 2.2,0.8 4.2,2.7 2,2 2.85,4.3 0.9,2.25 0.9,4.6 v 0.05 h 20.6 q 0,-6.85 -2.45,-12.7 -2.4,-5.95 -7.35,-10.9 z"
         id="path187" />
    </g>
    <g
       id="Layer0_7_FILL">
      <path
         fill="url(#Gradient_7)"
         stroke="none"
         d="m 102.75,262.9 q 0,2.35 -0.9,4.6 -0.85,2.3 -2.85,4.3 -2,1.9 -4.2,2.7 -2.2,0.85 -4.55,1 -2.3,0.05 -4.7,0.05 H 83.4 v 20.6 h 6.7 q 6.75,0 12.65,-2.4 5.85,-2.45 10.8,-7.3 4.95,-4.95 7.35,-10.9 2.45,-5.85 2.45,-12.7 h -20.6 z"
         id="path190" />
      <path
         fill="#ffffff"
         stroke="none"
         d="m 102.75,231.9 q -5.9,-2.45 -12.65,-2.45 H 62.8 v 66.7 h 20.6 v -20.6 -25.4 h 6.7 q 2.8,0 5.1,1 2.35,1 3.95,2.95 1.8,1.95 2.7,4.2 0.7,1.75 0.9,3.65 0,0.45 0,0.9 h 20.6 q 0,-0.05 0,-0.1 0,-0.9 -0.05,-1.75 -0.25,-5.85 -2.4,-10.95 -2.4,-5.95 -7.35,-10.8 -4.95,-4.95 -10.8,-7.35 z"
         id="path192" />
    </g>
    <g
       id="Layer0_8_FILL">
      <path
         fill="#8c8ca6"
         stroke="none"
         d="m 758.9,287.6 v -1.05 h -2.65 v 9.5 h 2.65 v -5.1 q 0,-1.15 0.6,-1.7 0.6,-0.6 1.35,-0.6 0.75,0 1.1,0.55 0.35,0.55 0.35,1.65 v 5.2 h 2.7 v -5.1 q 0,-1.15 0.55,-1.7 0.6,-0.6 1.4,-0.6 1.6,0 1.6,2.2 v 5.2 h 2.65 v -5.8 q 0,-1.85 -1,-2.85 -1.05,-1 -2.7,-1 -0.95,0 -1.9,0.45 -0.9,0.5 -1.45,1.35 -0.35,-0.75 -1.1,-1.3 -0.75,-0.5 -1.65,-0.5 -1.4,0 -2.5,1.2 m -9.9,-3.9 v 2.85 h -1.1 v 1.9 h 1.1 v 4.4 q 0,1.55 0.95,2.45 0.95,0.9 2.3,0.9 1.35,0 2.6,-1.15 l -1,-1.85 q -0.5,0.7 -1.25,0.7 -0.35,0 -0.65,-0.35 -0.3,-0.3 -0.3,-0.85 v -4.25 h 2.3 v -1.9 h -2.3 v -2.85 z"
         id="path195" />
    </g>
    <g
       id="Layer0_9_FILL">
      <path
         fill="#ffffff"
         stroke="none"
         d="m 625.3,346 q -2.95,-1.35 -4.25,-1.35 -1.9,0 -3.1,1.25 -1.2,1.25 -1.2,3.3 0,2.75 3.05,4.65 4.35,2.7 11.1,2.7 6.8,0 10.6,-2.95 3.8,-2.95 3.8,-8.65 0,-6.15 -5.65,-9.05 -1.75,-0.9 -7.25,-2.6 -1.25,-0.4 -1.85,-0.6 -0.55,-0.2 -1.15,-0.65 -0.55,-0.5 -0.55,-1.1 0,-1.95 2.85,-1.95 1.45,0 3.95,1 2.45,1.05 4.05,1.05 2,0 3.15,-1.3 1.15,-1.25 1.15,-3.3 0,-2.3 -2.35,-3.95 -3.8,-2.5 -10.75,-2.5 -6.35,0 -9.9,2.85 -3.65,2.85 -3.65,7.8 0,2.15 0.75,3.95 0.7,1.8 1.6,2.9 0.95,1.1 2.6,2.05 1.7,1 2.85,1.45 1.15,0.45 3.1,1.15 0.45,0.15 1.15,0.35 0.7,0.25 1.15,0.35 0.45,0.1 1,0.35 0.55,0.15 0.9,0.35 0.35,0.2 0.65,0.45 0.3,0.25 0.45,0.55 0.15,0.3 0.15,0.65 0,0.95 -0.85,1.55 -0.85,0.6 -2.5,0.6 -2.1,0 -5.05,-1.35 M 612,321.45 q -1.15,-1.1 -3.05,-1.1 H 594.6 q -2.75,0 -4.15,1.45 -1.45,1.45 -1.45,4.15 v 24.5 q 0,2.75 1.45,4.15 1.4,1.45 4.15,1.45 H 609 q 1.9,0 3,-1.1 1.1,-1.1 1.1,-3 0,-1.9 -1.1,-3 -1.15,-1.1 -3.05,-1.1 h -9.3 v -5.35 h 7.75 q 1.95,0 3.1,-1.15 1.2,-1.15 1.2,-3.15 0,-1.95 -1.2,-3.1 -1.2,-1.15 -3.15,-1.15 h -7.7 v -5.35 h 9.3 q 1.9,0 3.05,-1.1 1.1,-1.15 1.1,-3.05 0,-1.9 -1.1,-3 m -81.7,5.6 q -1.25,-3.55 -3,-5.1 -1.75,-1.6 -5.1,-1.6 -3.3,0 -5.15,1.6 -1.8,1.6 -3,5.05 l -7.7,22.35 q -0.8,2.55 0.5,4.6 1.35,2.1 4.4,2.1 2.25,0 3.4,-1.1 1.15,-1.1 1.65,-3.15 l 0.5,-1.65 h 10.8 l 0.5,1.65 q 0.6,2.1 1.75,3.15 1.15,1.1 3.35,1.1 3.1,0 4.4,-2.1 1.35,-2.05 0.5,-4.6 l -7.8,-22.3 m -11.05,15.05 2.9,-9.85 h 0.1 l 2.95,9.85 h -5.95 m 33.05,-3.8 h 0.1 l 5.05,12 q 1.3,3.1 2.45,4.45 1.1,1.3 2.75,1.3 1.65,0 2.8,-1.35 1.1,-1.3 2.35,-4.45 l 5.05,-11.95 h 0.1 v 12.8 q 0,2.3 1.3,3.6 1.3,1.35 3.55,1.35 2.4,0 3.65,-1.35 1.25,-1.3 1.25,-3.6 v -23.6 q 0,-3.35 -1.65,-5.25 -1.6,-1.9 -4.8,-1.9 -2.55,0 -4.15,1.35 -1.6,1.35 -3.1,4.65 l -6.35,14.5 h -0.1 l -6.35,-14.5 q -1.5,-3.3 -3.15,-4.65 -1.65,-1.35 -4.4,-1.35 -2.95,0 -4.5,1.9 -1.6,1.9 -1.6,5.25 v 23.6 q 0,2.3 1.25,3.6 1.3,1.35 3.6,1.35 2.35,0 3.6,-1.35 1.3,-1.3 1.3,-3.6 v -12.8 m -66.8,6.65 q -2.3,-2.25 -2.3,-6.55 0,-4.3 2.4,-6.45 2.35,-2.2 6.6,-2.2 1.55,0.1 3.3,0.55 1.7,0.45 2.55,0.45 1.85,0 3,-1.3 1.15,-1.3 1.15,-3.25 0,-2.9 -2.65,-4.5 -2.8,-1.7 -8.2,-1.7 -8.65,0 -13.95,4.9 -5.25,4.85 -5.25,13.35 0,8.5 5.2,13.35 5.2,4.9 13.85,4.9 6,0 8.8,-1.6 3,-1.65 3,-5.3 v -7.75 q 0,-2.2 -1.25,-3.45 -1.2,-1.3 -3.4,-1.3 -2.25,0 -3.5,1.3 -1.2,1.25 -1.2,3.45 v 5.05 q -1,0.3 -2.15,0.3 -3.65,0 -6,-2.25 z"
         id="path198" />
    </g>
    <linearGradient
       inkscape:collect="always"
       xlink:href="#linearGradient733"
       id="linearGradient735"
       x1="86.433128"
       y1="282.82135"
       x2="94.471214"
       y2="290.31448"
       gradientUnits="userSpaceOnUse" />
    <linearGradient
       inkscape:collect="always"
       xlink:href="#Gradient_7"
       id="linearGradient807"
       gradientUnits="userSpaceOnUse"
       x1="91.525002"
       y1="279.88751"
       x2="77.775002"
       y2="303.71249"
       spreadMethod="pad" />
    <linearGradient
       inkscape:collect="always"
       xlink:href="#Gradient_1"
       id="linearGradient813"
       gradientUnits="userSpaceOnUse"
       x1="243"
       y1="218.05"
       x2="243"
       y2="337.95001"
       spreadMethod="pad" />
    <linearGradient
       inkscape:collect="always"
       xlink:href="#Gradient_6"
       id="linearGradient993"
       gradientUnits="userSpaceOnUse"
       x1="276.22501"
       y1="249.71249"
       x2="262.47501"
       y2="225.8875"
       spreadMethod="pad" />
    <linearGradient
       inkscape:collect="always"
       xlink:href="#Gradient_5"
       id="linearGradient1001"
       gradientUnits="userSpaceOnUse"
       x1="332.91251"
       y1="289.89999"
       x2="312.38751"
       y2="295.39999"
       spreadMethod="pad" />
    <linearGradient
       inkscape:collect="always"
       xlink:href="#linearGradient733"
       id="linearGradient735-7"
       x1="86.433128"
       y1="282.82135"
       x2="94.471214"
       y2="290.31448"
       gradientUnits="userSpaceOnUse" />
    <linearGradient
       inkscape:collect="always"
       xlink:href="#Gradient_7"
       id="linearGradient807-7"
       gradientUnits="userSpaceOnUse"
       x1="91.525002"
       y1="279.88751"
       x2="77.775002"
       y2="303.71249"
       spreadMethod="pad" />
    <linearGradient
       inkscape:collect="always"
       xlink:href="#Gradient_7"
       id="linearGradient1186"
       gradientUnits="userSpaceOnUse"
       x1="91.525002"
       y1="279.88751"
       x2="77.775002"
       y2="303.71249"
       spreadMethod="pad" />
    <linearGradient
       inkscape:collect="always"
       xlink:href="#Gradient_7"
       id="linearGradient1192"
       gradientUnits="userSpaceOnUse"
       x1="91.525002"
       y1="279.88751"
       x2="77.775002"
       y2="303.71249"
       spreadMethod="pad" />
  </defs>
  <g
     transform="matrix(2.2075348,0,0,2.2075348,-129.80305,-486.20954)"
     id="g205">
    <g
       id="use203">
      <path
         fill="url(#Gradient_1)"
         stroke="none"
         d="m 410.25,238.45 -0.05,-0.05 q -5.55,-5.55 -12.05,-8.2 -6.65,-2.75 -14.2,-2.75 h -29.3 L 344,241.8 l -1.5,-4.25 h -30.05 l -5.35,10.5 q -2.4,-4.1 -6,-7.7 v -0.05 h -0.05 q -5.5,-5.4 -12.05,-8.15 h -0.05 q -6.6,-2.7 -14.15,-2.7 h -31.3 v 3.25 q -0.35,-0.35 -0.7,-0.7 l -0.05,-0.05 q -5.8,-5.8 -12.75,-8.75 h -0.05 v -0.05 q -6.95,-2.9 -15.2,-2.9 -8.25,0 -15.25,2.9 h -0.05 v 0.05 q -7,2.95 -12.8,8.8 v -0.05 q -4.8,4.7 -7.55,10.35 -0.15,-0.15 -0.3,-0.3 -5.85,-5.85 -12.8,-8.8 h -0.05 v -0.05 q -6.95,-2.9 -15.2,-2.9 -8.25,0 -15.25,2.9 h -0.05 v 0.05 q -7,2.95 -12.8,8.8 l -0.1,0.05 -0.8,0.9 Q 120.5,241 119,239.2 q -0.1,-0.05 -0.1,-0.1 l -0.55,-0.65 h -0.05 q -0.1,-0.2 -0.25,-0.3 L 118,238.1 q -0.25,-0.25 -0.4,-0.45 -0.25,-0.25 -0.45,-0.45 -0.15,-0.15 -0.3,-0.3 -0.15,-0.15 -0.3,-0.3 -0.1,-0.1 -0.15,-0.15 -5.55,-5.55 -12.1,-8.25 -6.65,-2.75 -14.2,-2.75 H 58.8 v 73.15 l 17.55,9.1 h 26 q 7,0 13.15,-2.5 h 0.05 q 4.7,-2 8.8,-5.4 3.05,2.7 6.45,4.7 0.55,0.6 1.2,1.25 5.4,5.4 11.9,8 h -0.05 q 6.5,2.75 14.2,2.75 7.6,0 14.1,-2.75 h 0.05 q 6.4,-2.65 11.85,-8 4.15,-4.2 6.75,-9.1 5.4,5.3 11.9,7.95 h -0.05 q 6.45,2.7 14.15,2.7 7.65,0 14.1,-2.7 6.5,-2.7 11.9,-8 0.05,-0.1 0.1,-0.15 v 14.9 h 19.6 v 28.45 q 0,10 10,10 h 81 q 10,0 10,-10 v -27.35 l 4.05,-2.65 -0.05,-0.25 h 4.65 q 7,0 13.2,-2.55 5.45,-2.25 10.2,-6.6 l 1.7,-0.55 0.1,-0.1 q 0.05,0 0.2,-0.05 0.25,-0.1 0.6,-0.25 6.55,-2.75 12.05,-8.15 h 0.05 q 5.5,-5.55 8.2,-12.25 v 0.05 q 2.75,-6.55 2.75,-14.25 0,-0.05 0,-0.1 0,-1 -0.05,-1.9 -0.3,-6.6 -2.7,-12.3 v -0.05 q -2.7,-6.65 -8.2,-12.05 m 0.8,15.1 0.05,0.05 q 1.85,4.45 2.05,9.6 v 0.05 q 0.05,0.7 0.05,1.5 0,0.05 0,0.1 0,6 -2.15,11.15 v 0.05 q -2.1,5.2 -6.45,9.55 v 0.05 q -4.4,4.25 -9.55,6.4 l -0.15,0.1 h -0.05 q -0.3,0.1 -0.55,0.25 l -1.55,0.5 q -0.05,0 -0.05,0.05 h -0.05 q -0.3,0.05 -0.45,0.1 l -0.85,0.3 -0.65,0.65 q -3.9,3.7 -8.4,5.6 -4.75,1.95 -10.15,1.95 h -9.6 q -2.15,-4.75 -9.05,-4.75 h -55.45 l 2.55,-7.35 -1.9,-1.25 -8.4,7.75 q -0.45,0.45 -0.95,0.85 H 272.5 q -8.1,0 -9.6,6.55 h -12 V 272.4 l -2.8,-0.6 -4.85,10.35 q -2.15,4.8 -6.1,8.8 v -0.05 q -4.25,4.2 -9.3,6.3 h -0.05 q -5.05,2.1 -11,2.1 -6,0 -11.05,-2.1 -5.1,-2.1 -9.3,-6.3 v 0.05 q -2,-2.05 -3.5,-4.25 l -4.75,-6.9 -2.35,8.05 q -0.45,1.45 -1.05,2.8 l -0.05,0.05 q -2.15,5.15 -6.35,9.4 v -0.05 q -4.3,4.2 -9.3,6.3 h -0.05 v 0.05 q -5.05,2.1 -11,2.1 -6,0 -11.1,-2.1 v -0.05 q -5.05,-2.1 -9.3,-6.3 v 0.05 q -0.75,-0.75 -1.35,-1.4 l -0.4,-0.55 -0.65,-0.35 q -3.75,-2.1 -6.95,-5.3 -0.45,-0.45 -0.9,-0.95 l -2.8,-3.1 -2.95,3 q -0.25,0.2 -0.55,0.5 V 292 q -3.95,3.85 -8.6,5.8 l -0.05,0.05 q -4.75,1.85 -10.1,1.85 H 78.3 l -11.5,-5.95 v -60.3 h 23.3 q 5.95,0 11.15,2.15 5.1,2.1 9.5,6.5 0.05,0.05 0.15,0.15 0.15,0.15 0.3,0.3 0.15,0.15 0.3,0.3 0.05,0.05 0.15,0.15 0.3,0.95 1.5,1.75 1.95,2.45 3.3,5.2 l 0.45,0.85 0.8,0.6 q 0.65,0.5 1.35,1.05 l 3.25,2.55 2.45,-3.3 q 0.35,-0.45 0.7,-0.9 l 3,-3.35 q 4.6,-4.55 10.1,-6.9 h 0.05 q 5.55,-2.3 12.15,-2.3 6.55,0 12.1,2.3 h 0.05 q 5.55,2.4 10.25,7.1 0.15,0.15 0.3,0.3 0.5,0.55 1.05,1.15 v -0.05 q 1.4,1.55 2.55,3.2 l 4.8,6.95 2.35,-8.1 q 0.5,-1.65 1.15,-3.25 2.3,-5.65 6.95,-10.2 4.65,-4.7 10.25,-7.1 h 0.05 q 5.55,-2.3 12.15,-2.3 6.55,0 12.1,2.3 h 0.05 q 5.55,2.4 10.25,7.1 4.35,4.25 6.7,9.5 l 4.85,10.4 2.8,-0.65 v -19.45 h 23.3 q 5.95,0 11.15,2.1 h -0.05 q 5.15,2.15 9.55,6.45 4.35,4.35 6.45,9.55 v 0.05 q 0.8,1.85 1.3,3.8 l 2.7,11 1.25,0.1 5.25,-15.2 4.95,-9.75 h 19.45 l 10.3,29.7 4,-0.7 v -28.9 l 7.6,-10.2 h 25.25 q 5.95,0 11.15,2.15 5.1,2.1 9.5,6.5 4.35,4.25 6.45,9.45 m -212,17.4 0.95,1.2 q 0.5,0.6 1.1,1.25 l 0.2,0.2 q 2.8,2.65 6.05,4.05 h 0.05 l 0.05,0.05 q 3.3,1.3 7.3,1.3 3.85,0 7.15,-1.35 h 0.05 q 3.3,-1.35 6.15,-4.05 v -0.05 h 0.05 q 2.6,-2.65 4.05,-5.65 0.5,-0.8 0.55,-1.55 l 0.2,-0.45 v -0.05 l 0.05,-0.1 v -0.05 l 0.45,-1.8 -0.7,-1.3 q -1.3,-2.55 -3.45,-4.65 -2.65,-2.6 -5.8,-3.85 -3.1,-1.35 -6.7,-1.35 -3.8,0 -6.9,1.35 l -0.05,0.05 q -3.05,1.25 -5.65,3.8 V 258 q -2.6,2.55 -3.9,5.75 v 0.05 q -1.05,2.55 -1.2,5.65 l -0.05,1.5 m 69.05,-9.9 h -4 v 22.4 h 10.7 q 3.7,0 6.7,-1.3 2.85,-1.25 5,-3.5 l 1.2,-1.3 -0.15,-1.8 q -0.2,-2.3 -1.05,-4.5 -1.05,-2.95 -3.6,-5.4 -2.45,-2.4 -5.25,-3.4 l 0.1,0.05 q -2.65,-1.05 -5.45,-1.2 h -0.1 q -2.05,-0.05 -4.1,-0.05 m -117,2.25 q -3.05,1.3 -5.65,3.85 -2.6,2.55 -3.9,5.85 -1.25,3.05 -1.25,6.7 0,2.9 0.85,5.5 l 0.5,1.6 1.5,0.75 q 0.6,0.3 1.35,0.5 l 0.25,0.1 5.75,0.85 h 0.25 q 3.85,0 7.15,-1.35 h 0.05 q 3.3,-1.35 6.15,-4.05 v -0.05 h 0.05 q 2.8,-2.85 4.25,-6.15 v -0.1 q 1.4,-3.4 1.4,-7.3 0,-1 -0.05,-1.9 l -0.1,-1.9 -1.6,-1.1 q -1.55,-1.1 -3.25,-1.8 v -0.05 q -3.1,-1.3 -6.75,-1.3 -3.8,0 -6.9,1.3 v 0.05 h -0.05 m -48.4,-5.85 q -0.2,0 -0.35,0 H 92.2 v 23.3 l 5.95,-3.35 q 1.85,-1.05 3.65,-2.7 l 0.05,-0.05 q 2.65,-2.7 3.75,-5.75 v 0.1 q 1.15,-3 1.15,-6.1 v -0.05 q 0,-0.45 0,-0.9 v -0.4 l -0.05,-0.35 v 0.25 l -4,-4 m 283.95,11.85 0.05,0.1 q -1.05,-2.8 -3.25,-5.2 -1.9,-2.2 -4.5,-3.4 l -5.7,-2.8 v 23.55 h 9.7 l 0.4,-0.05 q 0.05,0 0.15,0 h 3.2 l 0.7,-3.05 q 0.4,-1.75 0.4,-3.45 v -0.05 q 0,-0.4 0,-0.8 v -0.45 q -0.3,-2.3 -1.15,-4.4 z"
         id="path809"
         style="fill:url(#linearGradient813)" />
    </g>
  </g>
  <g
     transform="matrix(2.2075348,0,0,2.2075348,-129.80305,-486.20954)"
     id="g209">
    <use
       xlink:href="#Layer0_1_FILL"
       id="use207" />
  </g>
  <g
     transform="matrix(2.2075348,0,0,2.2075348,-129.80305,-486.20954)"
     id="g213">
    <use
       xlink:href="#Layer0_2_FILL"
       id="use211" />
  </g>
  <g
     transform="matrix(2.2075348,0,0,2.2075348,-129.80305,-486.20954)"
     id="g217">
    <use
       xlink:href="#Layer0_3_FILL"
       id="use215" />
  </g>
  <g
     transform="matrix(2.2075348,0,0,2.2075348,-129.80305,-486.20954)"
     id="g225">
    <g
       id="use223">
      <path
         fill="url(#Gradient_5)"
         stroke="none"
         d="M 338.08573,299.45 332.1814,282.4 h -9.67686 l -5.84996,17.05 z"
         id="path995"
         style="fill:url(#linearGradient1001)"
         sodipodi:nodetypes="ccccc" />
      <path
         fill="#ffffff"
         stroke="none"
         d="m 327.3,268.85 4.7,13.55 5.95,17.05 3.05,8.7 h 21.75 l -23.1,-66.6 H 314.9 l -23.15,66.6 21.9,0.1 3.05,-8.8 5.85,-17.05 z"
         id="path997" />
    </g>
  </g>
  <g
     id="use227"
     transform="matrix(2.2075348,0,0,2.2075348,-129.80305,-486.20954)">
    <path
       fill="#ffffff"
       stroke="none"
       d="m 268.1,233.45 h -20.6 v 66.7 h 27.3 q 6.75,0 12.65,-2.45 5.85,-2.4 10.8,-7.35 4.95,-4.85 7.35,-10.8 2.15,-5.1 2.4,-10.95 0.05,-0.85 0.05,-1.75 0,-0.05 0,-0.1 h -20.6 q 0,0.45 0,0.9 -0.2,1.9 -0.9,3.65 -0.9,2.25 -2.7,4.2 -1.6,1.95 -3.95,2.95 -2.3,1 -5.1,1 h -6.7 v -25.4 z"
       id="path987" />
    <path
       fill="url(#Gradient_6)"
       stroke="none"
       d="m 298.25,243.15 c -3.3,-3.23333 -6.9,-5.66667 -10.8,-7.3 -3.93333,-1.6 -8.15,-2.4 -12.65,-2.4 h -6.92651 v 20.6 H 270.25 c 1.6,0 3.16667,0.0167 4.7,0.05 1.56667,0.1 3.08333,0.43333 4.55,1 1.46667,0.53333 2.86667,1.43333 4.2,2.7 1.33333,1.33333 2.28333,2.76667 2.85,4.3 0.6,1.5 0.9,3.03333 0.9,4.6 v 0.36693 h 20.6 c 4.56667,0 -0.81667,-9.11697 -2.45,-13.01697 -1.6,-3.96667 -4.05,-7.6 -7.35,-10.9 z"
       id="path989"
       style="fill:url(#linearGradient993)"
       sodipodi:nodetypes="ccsccsccccscsccc" />
  </g>
  <g
     id="use231"
     style="fill:url(#linearGradient735);fill-opacity:1"
     transform="matrix(2.2075348,0,0,2.2075348,-129.80305,-486.20954)">
    <path
       fill="url(#Gradient_7)"
       stroke="none"
       d="m 102.75,262.9 c 0,1.56667 -0.3,3.1 -0.9,4.6 -0.56667,1.53333 -1.51667,2.96667 -2.85,4.3 -1.333333,1.26667 -2.733333,2.16667 -4.2,2.7 -1.466667,0.56667 -2.983333,0.9 -4.55,1 -1.533333,0.0333 -3.1,0.05 -4.7,0.05 H 83.4 v 20.6 h 6.7 c 4.5,0 8.716667,-0.8 12.65,-2.4 3.9,-1.63333 7.5,-4.06667 10.8,-7.3 3.3,-3.3 5.75,-6.93333 7.35,-10.9 1.63333,-3.9 2.45,-8.17842 2.45,-12.74508 h -20.6 z"
       id="path801"
       style="fill:url(#linearGradient1192)"
       sodipodi:nodetypes="sccccsccscccccs" />
    <path
       fill="#ffffff"
       stroke="none"
       d="m 102.75,231.9 q -5.9,-2.45 -12.65,-2.45 H 62.8 v 66.7 h 20.6 v -20.6 -25.4 h 6.7 q 2.8,0 5.1,1 2.35,1 3.95,2.95 1.8,1.95 2.7,4.2 0.7,1.75 0.9,3.65 0,0.45 0,0.9 h 20.6 q 0,-0.05 0,-0.1 0,-0.9 -0.05,-1.75 -0.25,-5.85 -2.4,-10.95 -2.4,-5.95 -7.35,-10.8 -4.95,-4.95 -10.8,-7.35 z"
       id="path803" />
    <path
       fill="url(#Gradient_7)"
       stroke="none"
       d="m 102.75,262.9 c 0,1.56667 -0.3,3.1 -0.9,4.6 -0.56667,1.53333 -1.51667,2.96667 -2.85,4.3 -1.333333,1.26667 -2.733333,2.16667 -4.2,2.7 -1.466667,0.56667 -2.983333,0.9 -4.55,1 -1.533333,0.0333 -3.1,0.05 -4.7,0.05 h -2.331357 v 20.6 H 90.1 c 4.5,0 8.716667,-0.8 12.65,-2.4 3.9,-1.63333 7.5,-4.06667 10.8,-7.3 3.3,-3.3 5.75,-6.93333 7.35,-10.9 1.63333,-3.9 2.45,-8.54103 2.45,-13.10769 h -20.6 z"
       id="path976"
       style="fill:url(#linearGradient807)"
       sodipodi:nodetypes="sccccsccscccccs" />
  </g>
  <g
     id="use231-8"
     style="fill:url(#linearGradient735-7);fill-opacity:1"
     transform="matrix(2.2075348,0,0,2.2075348,518.88076,-481.7944)">
    <path
       fill="url(#Gradient_7)"
       stroke="none"
       d="m 102.75,262.9 c 0,1.56667 -0.3,3.1 -0.9,4.6 -0.56667,1.53333 -1.51667,2.96667 -2.85,4.3 -1.333333,1.26667 -2.733333,2.16667 -4.2,2.7 -1.466667,0.56667 -2.983333,0.9 -4.55,1 -1.533333,0.0333 -3.1,0.05 -4.7,0.05 H 83.4 v 20.6 h 6.7 c 4.5,0 8.716667,-0.8 12.65,-2.4 3.9,-1.63333 7.5,-4.06667 10.8,-7.3 3.3,-3.3 5.75,-6.93333 7.35,-10.9 1.63333,-3.9 2.45,-8.17842 2.45,-12.74508 h -20.6 z"
       id="path801-7"
       style="fill:url(#linearGradient1186)"
       sodipodi:nodetypes="sccccsccscccccs" />
    <path
       fill="#ffffff"
       stroke="none"
       d="m 102.75,231.9 q -5.9,-2.45 -12.65,-2.45 H 62.8 v 66.7 h 20.6 v -20.6 -25.4 h 6.7 q 2.8,0 5.1,1 2.35,1 3.95,2.95 1.8,1.95 2.7,4.2 0.7,1.75 0.9,3.65 0,0.45 0,0.9 h 20.6 q 0,-0.05 0,-0.1 0,-0.9 -0.05,-1.75 -0.25,-5.85 -2.4,-10.95 -2.4,-5.95 -7.35,-10.8 -4.95,-4.95 -10.8,-7.35 z"
       id="path803-9" />
    <path
       fill="url(#Gradient_7)"
       stroke="none"
       d="m 102.75,262.9 c 0,1.56667 -0.3,3.1 -0.9,4.6 -0.56667,1.53333 -1.51667,2.96667 -2.85,4.3 -1.333333,1.26667 -2.733333,2.16667 -4.2,2.7 -1.466667,0.56667 -2.983333,0.9 -4.55,1 -1.533333,0.0333 -3.1,0.05 -4.7,0.05 h -2.331271 v 20.6 H 90.1 c 4.5,0 8.716667,-0.8 12.65,-2.4 3.9,-1.63333 7.5,-4.06667 10.8,-7.3 3.3,-3.3 5.75,-6.93333 7.35,-10.9 1.63333,-3.9 2.45,-8.54064 2.45,-13.1073 h -20.6 z"
       id="path976-4"
       style="fill:url(#linearGradient807-7)"
       sodipodi:nodetypes="sccccsccscccccs" />
  </g>
  <g
     id="g237"
     transform="translate(-0.65304565,-97.059538)">
    <use
       xlink:href="#Layer0_8_FILL"
       id="use235" />
  </g>
  <g
     id="g241"
     transform="translate(-0.65304565,-97.059538)">
    <use
       xlink:href="#Layer0_9_FILL"
       id="use239" />
  </g>
</svg>
